<svg width="114" height="69" viewBox="0 0 114 69" fill="none" xmlns="http://www.w3.org/2000/svg">
<path d="M13 14.3441H96V54.3441H13V14.3441Z" fill="#31365A"/>
<path d="M18.92 36.5121V14.3441H21.224V36.5121H18.92Z" fill="white"/>
<path d="M29.9075 33.3441V14.3441H36.5H43.3725H32.2115V21.5361H42.0355V23.7761H32.2115V31.1681H43.3795V33.3441H29.9075Z" fill="white"/>
<path d="M48.3413 33.3441V30.1441H51.5413V33.3441H48.3413Z" fill="white"/>
<path d="M62.4458 33.3441V23.5521L56.134 14.3441H58.8729L64.0137 21.9841L63.5962 21.3635L68.3136 14.3441H71.0834L64.3657 24.0961L64.7497 23.5386V33.3441H62.4458Z" fill="white"/>
<path d="M75.9388 33.3441V14.3441L78.2428 14.3441V33.3441H75.9388Z" fill="white"/>
<path d="M86.8887 36.5121V14.3441L89.1927 14.344V36.5121H86.8887Z" fill="white"/>
<line x1="63" y1="47" x2="101" y2="47" stroke="#65EBAA" stroke-width="6"/>
</svg>
